<svg width="20" height="20" viewBox="0 0 20 20" fill="none" xmlns="http://www.w3.org/2000/svg">
<path d="M19.7693 14.0648C19.1482 13.1204 18.4008 11.3241 18.4008 8.14815V7.49074C18.4008 3.38889 14.6638 0.0277778 10.0637 0H10.0005C8.896 0.00121518 7.80256 0.193777 6.78264 0.566692C5.76273 0.939607 4.8363 1.48557 4.05626 2.17341C3.27623 2.86125 2.65785 3.6775 2.23645 4.57555C1.81504 5.4736 1.59886 6.43587 1.60024 7.40741V8.14815C1.60024 11.3241 0.85285 13.1204 0.231777 14.0648C0.0815734 14.2899 0.00162542 14.5458 2.45244e-05 14.8068C-0.00157638 15.0678 0.0752266 15.3245 0.222661 15.551C0.370095 15.7775 0.582928 15.9657 0.839621 16.0965C1.09631 16.2274 1.38776 16.2963 1.68446 16.2963H5.78985C5.78985 17.2786 6.23348 18.2206 7.02313 18.9152C7.81278 19.6098 8.88378 20 10.0005 20C11.1173 20 12.1883 19.6098 12.9779 18.9152C13.7676 18.2206 14.2112 17.2786 14.2112 16.2963H18.3166C18.6132 16.298 18.905 16.2302 19.1621 16.1001C19.4192 15.9699 19.6324 15.782 19.7798 15.5556C19.9259 15.3278 20.0018 15.0704 20 14.809C19.9981 14.5475 19.9186 14.2909 19.7693 14.0648ZM10.0005 18.5185C9.33133 18.5161 8.69034 18.2812 8.21715 17.865C7.74395 17.4487 7.47689 16.8849 7.47412 16.2963H12.5269C12.5241 16.8849 12.2571 17.4487 11.7839 17.865C11.3107 18.2812 10.6697 18.5161 10.0005 18.5185Z" fill="#121212"/>
</svg>
