<svg width="20" height="20" viewBox="0 0 20 20" fill="none" xmlns="http://www.w3.org/2000/svg">
<path d="M19.7308 13.7528C19.1548 12.877 18.4677 11.206 18.4677 8.22128V7.58681C18.4677 3.43149 14.6987 0.0268085 10.0606 0H10C8.8863 -2.80501e-06 7.78355 0.194284 6.75488 0.571734C5.72621 0.949184 4.79184 1.50238 4.00528 2.19965C3.21872 2.89692 2.59541 3.72455 2.17106 4.63517C1.74671 5.54578 1.52965 6.52147 1.53231 7.50638V8.22128C1.53231 11.206 0.845191 12.877 0.269226 13.7528C0.0926662 14.025 -0.00015807 14.3334 2.0206e-07 14.6472C0.000158474 14.9611 0.0932936 15.2694 0.270128 15.5415C0.446963 15.8136 0.701325 16.0399 1.00788 16.198C1.31443 16.3561 1.66247 16.4404 2.01733 16.4426H5.57417C5.67948 17.4161 6.19127 18.32 7.00962 18.9778C7.82797 19.6355 8.89414 20 10 20C11.1059 20 12.172 19.6355 12.9904 18.9778C13.8087 18.32 14.3205 17.4161 14.4258 16.4426H17.9827C18.3375 16.4404 18.6856 16.3561 18.9921 16.198C19.2987 16.0399 19.553 15.8136 19.7299 15.5415C19.9067 15.2694 19.9998 14.9611 20 14.6472C20.0002 14.3334 19.9073 14.025 19.7308 13.7528ZM10 17.8723C9.53462 17.8708 9.08396 17.7279 8.72345 17.4676C8.36293 17.2073 8.11442 16.8455 8.01949 16.4426H11.9805C11.8856 16.8455 11.6371 17.2073 11.2766 17.4676C10.916 17.7279 10.4654 17.8708 10 17.8723ZM2.68424 14.2979C3.72501 12.3677 3.95742 9.96383 3.95742 8.22128V7.50638C3.95342 6.80279 4.10684 6.10545 4.40884 5.4545C4.71084 4.80356 5.15546 4.21188 5.7171 3.71353C6.27874 3.21518 6.9463 2.82 7.68134 2.55075C8.41639 2.2815 9.2044 2.14349 10 2.14468H10.0505C13.3547 2.16255 16.0426 4.60213 16.0426 7.58681V8.22128C16.0426 9.96383 16.275 12.3677 17.3158 14.2979H2.68424Z" fill="#121212"/>
</svg>
